<svg width="30" height="30" viewBox="0 0 30 30" fill="none" xmlns="http://www.w3.org/2000/svg">
<path d="M23.4483 21.1224C21.7241 22.3469 19.3104 23.2653 16.8966 23.2653C11.3793 23.2653 7.58621 19.5918 7.58621 14.6939C7.58621 9.79591 11.3793 6.42857 16.8966 6.42857C19.3104 6.42857 21.7241 7.04081 23.4483 8.57142L24.4828 9.48979L30 4.89796L28.6207 3.97959C25.5172 1.53061 21.3793 0 16.8966 0C7.24139 0 0 6.42857 0 15C0 23.5714 7.24139 30 16.8966 30C21.3793 30 25.5172 28.4694 28.6207 26.0204L30 25.102L24.4828 20.2041L23.4483 21.1224Z" fill="black"/>
<path d="M16.5514 19.898C19.5985 19.898 22.0687 17.7051 22.0687 15C22.0687 12.2949 19.5985 10.102 16.5514 10.102C13.5043 10.102 11.0342 12.2949 11.0342 15C11.0342 17.7051 13.5043 19.898 16.5514 19.898Z" fill="black"/>
</svg>
