<svg width="31" height="30" viewBox="0 0 31 30" fill="none" xmlns="http://www.w3.org/2000/svg">
<path d="M10.7394 24.156C10.7394 24.28 10.6002 24.3793 10.4248 24.3793C10.2252 24.3979 10.0861 24.2986 10.0861 24.156C10.0861 24.0319 10.2252 23.9326 10.4006 23.9326C10.5821 23.914 10.7394 24.0133 10.7394 24.156ZM8.8583 23.8768C8.81597 24.0009 8.93693 24.1435 9.11838 24.1808C9.27564 24.2428 9.45709 24.1808 9.49338 24.0567C9.52967 23.9326 9.41476 23.79 9.2333 23.7341C9.07605 23.6907 8.90064 23.7527 8.8583 23.8768ZM11.5317 23.7713C11.3563 23.8148 11.2353 23.9326 11.2535 24.0753C11.2716 24.1994 11.4289 24.28 11.6103 24.2366C11.7857 24.1932 11.9067 24.0753 11.8885 23.9512C11.8704 23.8334 11.7071 23.7527 11.5317 23.7713ZM15.5115 0C7.12242 0 0.705078 6.53216 0.705078 15.1362C0.705078 22.0158 4.92685 27.9028 10.9571 29.9747C11.7313 30.1174 12.0035 29.6273 12.0035 29.2241C12.0035 28.8395 11.9853 26.718 11.9853 25.4152C11.9853 25.4152 7.75145 26.3457 6.86234 23.5666C6.86234 23.5666 6.17282 21.7615 5.18088 21.2962C5.18088 21.2962 3.7958 20.3223 5.27766 20.3409C5.27766 20.3409 6.78371 20.4649 7.61234 21.9414C8.93693 24.3359 11.1567 23.6473 12.0216 23.2379C12.1607 22.2453 12.5539 21.5567 12.9894 21.1473C9.6083 20.7627 6.19701 20.2602 6.19701 14.2926C6.19701 12.5867 6.65669 11.7306 7.62443 10.6388C7.46717 10.2356 6.95306 8.57307 7.78169 6.4267C9.0458 6.02348 11.9551 8.10161 11.9551 8.10161C13.1648 7.75422 14.4652 7.57432 15.7535 7.57432C17.0418 7.57432 18.3422 7.75422 19.5519 8.10161C19.5519 8.10161 22.4611 6.01728 23.7252 6.4267C24.5539 8.57927 24.0398 10.2356 23.8825 10.6388C24.8502 11.7368 25.443 12.5929 25.443 14.2926C25.443 20.2788 21.8805 20.7565 18.4994 21.1473C19.0559 21.6374 19.5277 22.5679 19.5277 24.0257C19.5277 26.1162 19.5095 28.703 19.5095 29.2117C19.5095 29.6149 19.7877 30.105 20.5559 29.9623C26.6043 27.9028 30.7051 22.0158 30.7051 15.1362C30.7051 6.53216 23.9006 0 15.5115 0ZM6.58411 21.3955C6.50548 21.4575 6.52363 21.6002 6.62645 21.718C6.72322 21.8173 6.86234 21.8607 6.94096 21.7801C7.01959 21.718 7.00145 21.5753 6.89863 21.4575C6.80185 21.3582 6.66274 21.3148 6.58411 21.3955ZM5.93088 20.893C5.88855 20.9736 5.94903 21.0729 6.07 21.1349C6.16677 21.1969 6.28774 21.1783 6.33008 21.0915C6.37242 21.0108 6.31193 20.9116 6.19096 20.8496C6.07 20.8123 5.97322 20.8309 5.93088 20.893ZM7.89056 23.1014C7.79379 23.182 7.83008 23.3681 7.96919 23.486C8.1083 23.6287 8.28371 23.6473 8.36234 23.548C8.44096 23.4674 8.40467 23.2813 8.28371 23.1634C8.15064 23.0207 7.96919 23.0021 7.89056 23.1014ZM7.20105 22.1895C7.10427 22.2515 7.10427 22.4128 7.20105 22.5555C7.29782 22.6982 7.46113 22.7602 7.53976 22.6982C7.63653 22.6175 7.63653 22.4562 7.53976 22.3136C7.45508 22.1709 7.29782 22.1088 7.20105 22.1895Z" fill="black"/>
</svg>
